{
  "asset": {
    "version": "2.0",
    "generator": "veng fixture generator"
  },
  "buffers": [
    {
      "byteLength": 840,
      "uri": "data:application/octet-stream;base64,"
    }
  ],
  "bufferViews": [
    {
      "buffer": 0,
      "byteOffset": 0,
      "byteLength": 288,
      "target": 34962
    },
    {
      "buffer": 0,
      "byteOffset": 288,
      "byteLength": 288,
      "target": 34962
    },
    {
      "buffer": 0,
      "byteOffset": 576,
      "byteLength": 192,
      "target": 34962
    },
    {
      "buffer": 0,
      "byteOffset": 768,
      "byteLength": 72,
      "target": 34963
    }
  ],
  "accessors": [
    {
      "bufferView": 0,
      "componentType": 5126,
      "count": 24,
      "type": "VEC3",
      "min": [
        -0.6,
        -0.15,
        -0.6
      ],
      "max": [
        0.6,
        0.15,
        0.6
      ]
    },
    {
      "bufferView": 1,
      "componentType": 5126,
      "count": 24,
      "type": "VEC3"
    },
    {
      "bufferView": 2,
      "componentType": 5126,
      "count": 24,
      "type": "VEC2"
    },
    {
      "bufferView": 3,
      "componentType": 5123,
      "count": 36,
      "type": "SCALAR"
    }
  ],
  "meshes": [
    {
      "name": "SlabMesh",
      "primitives": [
        {
          "attributes": {
            "POSITION": 0,
            "NORMAL": 1,
            "TEXCOORD_0": 2
          },
          "indices": 3
        }
      ]
    }
  ],
  "nodes": [
    {
      "name": "Slab",
      "children": [
        1,
        2,
        3
      ]
    },
    {
      "name": "Deck",
      "mesh": 0
    },
    {
      "name": "Mount_Top",
      "translation": [
        0.0,
        0.32499999999999996,
        0.0
      ],
      "scale": [
        0.35,
        0.35,
        0.35
      ]
    },
    {
      "name": "Mount_Edge",
      "translation": [
        0.6,
        0.0,
        0.0
      ],
      "rotation": [
        0.0,
        0.7071067811865475,
        0.0,
        0.7071067811865476
      ]
    }
  ],
  "scenes": [
    {
      "nodes": [
        0
      ]
    }
  ],
  "scene": 0
}
